<svg xmlns="http://www.w3.org/2000/svg" xmlns:xlink="http://www.w3.org/1999/xlink" viewBox="0 0 825 277"><defs><style>.a{fill:#a6cb44;}.b{clip-path:url(#a);}.c{fill:#3b5998;}.d,.e{fill:#dfe3ee;}.e{font-size:47px;font-family:Trebuchet-BoldItalic, Trebuchet MS;font-weight:700;font-style:italic;}.f{font-size:93px;}</style><clipPath id="a"><rect class="a" width="825" height="277" rx="138.5" transform="translate(548 5432)"/></clipPath></defs><g transform="translate(-548 -5432)"><g class="b"><path class="c" d="M138.5,0h548a138.5,138.5,0,0,1,0,277h-548a138.5,138.5,0,0,1,0-277Z" transform="translate(548 5432)"/><path class="d" d="M37.385,278.8h56.97V140.015H138.6l7.273-55.152H94.355V46.682q0-13.333,4.848-19.394,6.061-7.273,22.424-7.273h29.091V-29.076Q134.355-31.5,108.294-31.5q-32.121,0-51.515,19.091T37.385,41.227V84.864H-9.281v55.152H37.385Z" transform="translate(676.281 5504.849)"/></g><text class="e" transform="translate(1082 5541)"><tspan x="-132.497" y="0">Nos siga no </tspan><tspan class="f"><tspan x="-209.023" y="83">Facebook</tspan></tspan></text></g></svg>