<svg xmlns="http://www.w3.org/2000/svg" viewBox="0 0 1124 41.8"><defs><style>.a{fill:none;stroke:#a6cb44;stroke-miterlimit:10;stroke-width:10px;}</style></defs><path class="a" d="M1124,36.8c-20.1,0-20.1-31.8-40.2-31.8s-20.1,31.8-40.2,31.8c-19.96,0-19.96-31.8-40.062-31.8s-20.1,31.8-40.2,31.8c-19.96,0-19.96-31.8-40.062-31.8s-20.1,31.8-40.2,31.8C863.1,36.8,863.1,5,843,5s-20.1,31.8-40.2,31.8c-19.96,0-19.96-31.8-40.062-31.8s-20.1,31.8-40.2,31.8c-19.96,0-19.96-31.8-40.062-31.8s-20.1,31.8-40.2,31.8C622.305,36.8,622.305,5,602.2,5S582.1,36.8,562,36.8C542.04,36.8,542.04,5,521.938,5s-20.1,31.8-40.2,31.8S461.633,5,441.673,5c-20.1,0-20.1,31.8-40.2,31.8S381.367,5,361.407,5c-20.1,0-20.1,31.8-40.2,31.8S301.1,5,281,5s-20.1,31.8-40.2,31.8c-19.96,0-19.96-31.8-40.062-31.8s-20.1,31.8-40.2,31.8c-19.96,0-19.96-31.8-40.062-31.8s-20.1,31.8-40.2,31.8C60.305,36.8,60.305,5,40.2,5S20.1,36.8,0,36.8"/></svg>