<svg xmlns="http://www.w3.org/2000/svg" viewBox="0 0 380 322.435"><defs><style>.a{fill:#ccc;opacity:0.2;}.a,.b,.c,.e,.f,.h,.j,.l,.m,.n,.o,.q,.r{fill-rule:evenodd;}.b,.p{fill:#ffdbc4;}.c,.t{fill:#5f278e;}.d,.e{fill:#fff;}.f,.i{fill:#a5cd47;}.g{fill:#1e5d78;}.h{fill:#ffc19a;}.j{fill:#44494c;}.k,.n{fill:#38413e;}.l{fill:#e6e6e6;}.m{fill:#656e6b;}.o{fill:#fab361;}.q{fill:#9effff;}.r{fill:#cfffff;}.s{fill:#6d7478;}</style></defs><g transform="translate(0 291.517)"><path class="a" d="M190,294.918c104.677,0,190-6.957,190-15.459S294.677,264,190,264,0,270.957,0,279.459,85.323,294.918,190,294.918Z" transform="translate(0 -264)"/></g><g transform="translate(218.387 207.264)"><path class="b" d="M185.344,199.184l1.888-11.484,17.938,1.1-1.3,8.061s-2.242,9.165-9.559,8.613C187.115,204.926,184.046,205.589,185.344,199.184Z" transform="translate(-185.054 -187.7)"/></g><g transform="translate(215.402 216.208)"><path class="c" d="M186.036,195.8c-4.366,4.086-4.248,8.5-1.888,13.14h44.137c1.652-6.957-16.286-12.367-23.957-12.588C200.079,200.769,190.4,201.321,186.036,195.8Z" transform="translate(-182.525 -195.8)"/></g><g transform="translate(236.829 216.871)"><path class="d" d="M202.592,200.486a3.164,3.164,0,0,1-.826-.221A1.694,1.694,0,0,1,200.7,198.5c.118-.552.826-1.656,3.894-2.1a.453.453,0,0,1,.354.11.389.389,0,0,1,.118.331c-.472,2.1-1.18,3.313-2.006,3.644Zm1.77-3.423c-1.652.331-2.714.883-2.95,1.546-.118.331.236.773.708,1.1.354.221.59.221.708.11C203.182,199.713,203.772,199.161,204.362,197.063Z" transform="translate(-200.681 -196.4)"/></g><g transform="translate(242.231 217.156)"><path class="d" d="M207.314,200.127a.421.421,0,0,1-.236-.11l-1.77-2.871c-.118-.11,0-.331.118-.442s.354,0,.472.11l1.77,2.871c.118.11,0,.331-.118.442Z" transform="translate(-205.259 -196.659)"/></g><g transform="translate(215.727 226.257)"><path class="e" d="M182.8,204.9a21.181,21.181,0,0,0,1.18,3.2h44.137a4.5,4.5,0,0,0-.59-3.2Z" transform="translate(-182.8 -204.9)"/></g><g transform="translate(144.276 136.163)"><path class="f" d="M154.88,123.409l62.193,10.49c7.317,1.215,10.267,10.6,9.441,16.784l-5.547,46.709a31.376,31.376,0,0,1-23.484,0l5.429-47.151h-62.9s-18.882-1.1-17.7-15.018C123.724,121.422,154.88,123.409,154.88,123.409Z" transform="translate(-122.255 -123.31)"/></g><g transform="translate(164.863 141.783)"><path class="g" d="M206.731,199.292l-1.416-.11,6.373-48.586c.354-3.092-1.888-5.742-5.311-6.184l-39.77-5.742c-.708-.11-17.466-2.65-26.907-9.165l.826-1.1c9.205,6.294,26.081,8.944,26.2,8.944l39.77,5.742c4.248.663,7.081,3.865,6.491,7.73Z" transform="translate(-139.7 -128.4)"/></g><g transform="translate(162.092 48.034)"><path class="h" d="M143.545,43.5l16.994,4.417-5.9,20.98c-2.714,9.938-19.708,5.3-16.994-4.417Z" transform="translate(-137.352 -43.5)"/></g><g transform="translate(146.052 4.527)"><path class="b" d="M150.006,4.1c-33.4.11-31.155,32.243-14.161,49.359,6.609,6.736,22.776,9.828,31.037,9.828,4.366-.221,5.783-2.429,7.317-7.067.236-.663,2.95-.883,1.18-2.981,2.242-.773.59-2.208.708-2.871C178.919,33.031,169.124,3.99,150.006,4.1Z" transform="translate(-123.76 -4.1)"/></g><g transform="translate(139.727)"><path class="c" d="M150.5,0c17.7,0,32.1,13.472,32.1,30.035H150.5v22.2c-4.366,3.644-12.509,6.073-17.584,2.981C124.183,49.8,118.4,40.636,118.4,30.145,118.4,13.472,132.8,0,150.5,0Z" transform="translate(-118.4)"/></g><g transform="translate(147.821 26.943)"><path class="i" d="M181.245,24.4a2.988,2.988,0,1,1,0,5.963l-26.317,2.208-2.6,13.472a8.282,8.282,0,0,1-1.416,4.638c-4.366,6.957-16.758,9.607-24.075,5.521a2.943,2.943,0,0,1-1.18-4.086,3.387,3.387,0,0,1,4.366-1.1c4.248,2.429,12.745.663,15.342-3.423a2.874,2.874,0,0,0,.472-1.546l2.6-16.563a3.076,3.076,0,0,1,3.186-2.981Z" transform="translate(-125.259 -24.4)"/></g><g transform="translate(145.963 5.574)"><path class="i" d="M125.119,24.761h-.354A1.485,1.485,0,0,1,123.7,23.1c2.478-8.723,9.8-15.57,19.118-18a1.491,1.491,0,0,1,1.77.883,1.36,1.36,0,0,1-.944,1.656,23.534,23.534,0,0,0-17.112,16.122A1.4,1.4,0,0,1,125.119,24.761Z" transform="translate(-123.685 -5.048)"/></g><g transform="translate(191.797 38.832)"><path class="b" d="M168.633,35.2c3.068,5.742,6.727,11.263-1.534,11.042C158.956,46.135,163.086,34.431,168.633,35.2Z" transform="translate(-162.523 -35.167)"/></g><g transform="translate(190.223 35.335)"><path class="j" d="M162.618,38.846c.826,0,1.416-1.546,1.416-3.423S163.326,32,162.618,32c-.826,0-1.416,1.546-1.416,3.423C161.084,37.3,161.792,38.846,162.618,38.846Z" transform="translate(-161.189 -32)"/></g><g transform="translate(193.422 53.334)"><path class="h" d="M168.5,49.073l-.236-.442h0a21.722,21.722,0,0,1-4.248-.331H163.9C164.962,48.852,167.322,49.515,168.5,49.073Z" transform="translate(-163.9 -48.3)"/></g><g transform="translate(139.718 64.929)"><path class="c" d="M125.364,150.341c16.05,4.417,37.528-8.834,39.062-18.772C152.507,118.1,156.4,81.105,159.942,66.75A28.022,28.022,0,0,1,141.65,58.8C122.3,81.547,109.9,140.182,125.364,150.341Z" transform="translate(-118.392 -58.8)"/></g><g transform="translate(155.9 74.248)"><path class="c" d="M144.49,147.142c9.2-3.865,16.64-10.711,17.584-16.453-11.447-12.919-8.261-48.034-4.839-63.272-10.5-.773-19.944.883-21.124,6.957-2.124,10.711,1.77,25.176,7.907,31.25,5.429,5.3,4.012,12.478,3.54,18.33S123.484,144.6,135.521,139.3c12.037-5.411,12.037-12.147,13.925-8.944s-7.671,13.03-13.453,16.674,8.143-2.65,15.342-7.177C158.18,135.327,150.509,142.5,144.49,147.142Z" transform="translate(-132.105 -67.24)"/></g><g transform="translate(264.708 127.533)"><path class="k" d="M0,0,16.092.406,16.5,15.838.406,15.432Z" transform="matrix(0.903, -0.43, 0.43, 0.903, 0, 7.089)"/></g><g transform="translate(292.469 234.649)"><path class="j" d="M290.515,212.61c-.826,0-1.652-.11-2.478-.11v18.22h1.3c11.329.663,19.944,9.828,19.236,20.428-.708,10.159-9.8,18-20.534,18v18.22c21.006,0,38.59-15.238,40.006-35.115C329.341,231.714,312.584,213.936,290.515,212.61Zm-2.6,0c-21.006,0-38.59,15.238-40.006,35.115-1.416,20.649,15.342,38.427,37.41,39.752.826,0,1.652.11,2.478.11v-18.22h-1.3c-11.329-.663-19.944-9.828-19.236-20.428.708-10.159,9.8-18,20.534-18V212.61Z" transform="translate(-247.829 -212.5)"/></g><g transform="translate(305.715 247.126)"><path class="l" d="M287.668,223.8h-1.652v5.852h1.3c11.329.663,19.944,9.828,19.236,20.428-.708,10.159-9.8,18-20.534,18v5.852c14.043,0,25.845-10.269,26.789-23.52C313.63,236.609,302.419,224.683,287.668,223.8Zm-1.77,0c-14.043,0-25.845,10.269-26.789,23.52-.944,13.8,10.267,25.728,25.137,26.612H285.9V268.08h-1.3c-11.329-.663-19.944-9.828-19.236-20.428.708-10.159,9.795-18,20.534-18V223.8Z" transform="translate(-259.053 -223.8)"/></g><g transform="translate(309.783 249.004)"><path class="l" d="M265.45,234.665,263.8,237.2l18.292,11.374-19.59,9.165,1.416,2.65,19.708-9.165-1.3,20.539,3.068.221,1.416-20.649L305.1,262.713l1.77-2.54L288.463,248.8l19.708-9.165-1.416-2.65-19.826,9.165,1.416-20.539-3.186-.11-1.3,20.649Z" transform="translate(-262.5 -225.5)"/></g><g transform="translate(318.136 258.697)"><path class="c" d="M284.946,234.3c-8.025-.442-14.87,5.19-15.342,12.7s5.547,13.913,13.571,14.355,14.87-5.19,15.342-12.7S292.97,234.744,284.946,234.3Z" transform="translate(-269.578 -234.278)"/></g><g transform="translate(318.707 245.823)"><path class="m" d="M272.113,222.708l-1.652.663a.677.677,0,0,0-.354.883l8.5,17.226a.765.765,0,0,0,.944.331l1.652-.663a.678.678,0,0,0,.354-.883l-8.5-17.226C272.821,222.708,272.467,222.488,272.113,222.708Z" transform="translate(-270.063 -222.619)"/></g><g transform="translate(322.251 255.61)"><path class="f" d="M277.473,231.612l-3.54,1.546a1.327,1.327,0,0,0-.708,1.877l13.926,28.379a1.609,1.609,0,0,0,2.006.663l3.54-1.546a1.416,1.416,0,0,0,.708-1.877l-13.925-28.379A1.523,1.523,0,0,0,277.473,231.612Z" transform="translate(-273.065 -231.482)"/></g><g transform="translate(283.938 219.386)"><path class="c" d="M274.234,200.911c-33.4,8.5-29.857,25.287-33.634,44.611L336.662,228.3C331.47,209.634,307.631,192.408,274.234,200.911Z" transform="translate(-240.6 -198.678)"/></g><g transform="translate(54.876 101.258)"><path class="c" d="M263.407,91.7l18.764.552c7.081,7.95,7.671,16.563,1.062,26.17,0,1.215-.826,1.546-2.6,2.54l-18.056,9.386V92.142l.826-.442Zm-.826,162.211H264c10.385.773,20.77-7.288,26.553-15.349l29.267-41.519c11.8-16.784-7.2-54.328-31.745-74.535-2.124-1.656-3.894-1.767-6.609-.11l-18.882,9.828V156.96l14.279,28.6-7.435,23.63a15.391,15.391,0,0,1-6.845,8.282Zm0-123.563-6.845,3.534c-1.652.883-4.6.331-5.429-1.325l-13.1-26.06,25.255-14.465v38.317Zm0,1.877-6.255,3.2c-1.652.883-2.832,3.313-2.006,4.969l8.261,16.563V132.225Zm0,85.247V253.8H191.655c-6.137,0-12.155-4.859-16.758-8.834l-23.956-20.318L46.5,224.98c2.124-27.827,25.019-59.076,35.876-58.3l120.373,9.165-4.72,21.643c-2.36,10.711,1.888,21.643,10.621,22.416h44.137A17.7,17.7,0,0,0,262.581,217.472Z" transform="translate(-46.5 -91.7)"/></g><g transform="translate(271.783 101.258)"><path class="n" d="M230.3,91.7l18.764.552c7.081,7.95,7.671,16.563,1.062,26.17C242.219,111.907,247.766,100.865,230.3,91.7Z" transform="translate(-230.3 -91.7)"/></g><g transform="translate(62.699 234.759)"><g transform="translate(25.43 23.925)"><path class="m" d="M88.275,234.3c-8.025.442-14.043,6.957-13.571,14.355.472,7.509,7.435,13.14,15.342,12.7,8.025-.442,14.043-6.957,13.571-14.355C103.145,239.493,96.3,233.751,88.275,234.3Z" transform="translate(-74.678 -234.267)"/></g><path class="j" d="M93.1,287.577a21.381,21.381,0,0,0,2.6-.11c22.068-1.325,38.826-19.1,37.41-39.752-1.3-19.876-19-35.115-40.006-35.115v18.22c10.739,0,19.826,7.84,20.534,18,.708,10.6-7.907,19.766-19.236,20.428H93.1v18.33ZM90.623,212.6c-22.068,1.325-38.826,19.1-37.41,39.752,1.3,19.876,19,35.115,40.006,35.115v-18.22c-10.739,0-19.826-7.84-20.534-18-.708-10.6,7.907-19.766,19.236-20.428h1.3V212.6Z" transform="translate(-53.129 -212.6)"/><g transform="translate(13.245 12.367)"><path class="l" d="M91.079,274.042h1.652c14.752-.883,25.963-12.809,25.019-26.612-.944-13.251-12.745-23.52-26.789-23.52v5.852c10.739,0,19.826,7.84,20.534,18,.708,10.6-7.907,19.766-19.236,20.428h-1.3v5.852ZM89.427,223.8c-14.752.883-25.963,12.809-25.019,26.612.944,13.251,12.745,23.52,26.789,23.52V268.08c-10.739,0-19.826-7.84-20.534-18-.708-10.6,7.907-19.766,19.236-20.428h1.3V223.8Z" transform="translate(-64.353 -223.8)"/></g><g transform="translate(17.077 14.245)"><path class="l" d="M69.016,237.2l-1.416,2.65,19.708,9.165L69.016,260.394l1.77,2.429L89.2,251.449l1.416,20.428,3.186-.11-1.416-20.649,19.708,9.165,1.416-2.65-19.826-9.165,18.292-11.484-1.77-2.429-18.41,11.484L90.376,225.5l-3.068.221,1.416,20.539Z" transform="translate(-67.6 -225.5)"/></g></g><g transform="translate(59.832 221.619)"><path class="f" d="M308.439,200.7c-6.019,11.926-24.9,48.255-44.727,49.359H185.47c-6.137,0-12.155-3.534-17.348-6.957L147.47,228.858H50.7c4.6-7.619,7.789-11.042,14.988-15.349l84.5-.221,18.646,15.349c4.6,3.865,13.571,13.03,22.186,13.913h72.342C273.625,242.55,301.476,210.638,308.439,200.7Z" transform="translate(-50.7 -200.7)"/></g><g transform="translate(258.143 87.508)"><path class="k" d="M0,0,2.242.009l.1,23.085L.1,23.085Z" transform="translate(0 0.149) rotate(-3.657)"/></g><g transform="translate(256.441 81.588)"><path class="n" d="M220.84,73.9l-2.242.11a1.365,1.365,0,0,0-1.3,1.325l.236,3.423a1.383,1.383,0,0,0,1.416,1.215l2.242-.11a1.365,1.365,0,0,0,1.3-1.325l-.236-3.423A1.237,1.237,0,0,0,220.84,73.9Z" transform="translate(-217.3 -73.887)"/></g><g transform="translate(252.365 83.673)"><path class="k" d="M0,0,4.129.017l.009,2.1L.009,2.1Z" transform="matrix(0.998, -0.064, 0.064, 0.998, 0, 0.263)"/></g><g transform="translate(245.038 77.406)"><path class="c" d="M208.419,70.1a23.989,23.989,0,0,0-.708,8.061,23.758,23.758,0,0,0,1.77,7.95A8.112,8.112,0,0,0,208.419,70.1Z" transform="translate(-207.637 -70.1)"/></g><g transform="translate(251.586 108.948)"><path class="n" d="M225.24,98.7c-6.963.442-12.391,4.417-12.037,8.834.354,4.527,6.255,7.73,13.217,7.4,6.963-.442,12.391-4.417,12.037-8.834C238.1,101.575,232.2,98.262,225.24,98.7Z" transform="translate(-213.186 -98.664)"/></g><g transform="translate(259.74 112.737)"><path class="o" d="M224.467,102.1a4.46,4.46,0,0,0-4.366,4.638,4.549,4.549,0,0,0,4.957,4.086,4.46,4.46,0,0,0,4.366-4.638A4.549,4.549,0,0,0,224.467,102.1Z" transform="translate(-220.096 -102.096)"/></g><g transform="translate(160.197 75.32)"><path class="p" d="M136.636,79.02c-4.6-7.95,9.913-15.349,14.516-7.4,10.739,10.6,20.18,22.747,29.031,34.673,17.112-.331,29.739-.994,45.671-.883,9.677-.663,10.385,9.165.708,9.828-17.938-1.325-32.217,4.748-49.683,4.417h0C167.673,120.208,141.238,86.419,136.636,79.02Z" transform="translate(-135.746 -68.211)"/></g><g transform="translate(159.608 72.373)"><path class="c" d="M142.39,95.862c-9.323-12.7-8.969-24.845-2.124-28.931,6.609-3.975,16.876.221,23.6,17.226C157.024,91.224,152.539,94.868,142.39,95.862Z" transform="translate(-135.247 -65.541)"/></g><g transform="translate(249.843 107.323)"><path class="p" d="M222.083,117.739h0a10.51,10.51,0,0,1-7.553-3.313A9.969,9.969,0,0,1,215,100.072a10.8,10.8,0,0,1,7.671-2.871,10.451,10.451,0,0,1,7.435,3.313,10.3,10.3,0,0,1,2.832,7.177,3.548,3.548,0,0,1-7.081,0,3.813,3.813,0,0,0-1.062-2.65,3.415,3.415,0,0,0-2.478-1.1,3.962,3.962,0,0,0-2.478.883,3.727,3.727,0,0,0-.118,5.3,3.415,3.415,0,0,0,2.478,1.1,3.289,3.289,0,0,1,3.422,3.423A3.5,3.5,0,0,1,222.083,117.739Z" transform="translate(-211.709 -97.193)"/></g><g transform="translate(241.8 114.281)"><path class="m" d="M227.442,103.5l-19.708,1.215A2.905,2.905,0,0,0,204.9,107.7h0a2.961,2.961,0,0,0,3.186,2.65l19.708-1.215a2.905,2.905,0,0,0,2.832-2.981h0A2.961,2.961,0,0,0,227.442,103.5Z" transform="translate(-204.894 -103.494)"/></g><g transform="translate(255.031 107.324)"><path class="p" d="M228.49,110.893h0a3.441,3.441,0,0,1-3.54-3.313,3.647,3.647,0,0,0-1.652-3.092,3.316,3.316,0,0,0-2.714-.552,3.511,3.511,0,0,1-4.367-2.319,3.32,3.32,0,0,1,2.478-4.086,10.806,10.806,0,0,1,8.969,1.656,10.033,10.033,0,0,1,4.367,8.5A3.426,3.426,0,0,1,228.49,110.893Z" transform="translate(-216.105 -97.194)"/></g><g transform="translate(242.988 116.376)"><path class="n" d="M207.788,105.4a2.075,2.075,0,0,0-1.888,1.988,2.116,2.116,0,0,0,2.124,1.767,2.075,2.075,0,0,0,1.888-1.988A2.024,2.024,0,0,0,207.788,105.4Z" transform="translate(-205.9 -105.392)"/></g><g transform="translate(85.438 152.023)"><path class="n" d="M200.562,168.842c-1.534,1.435-2.006,2.208-6.845,1.877L83.966,162.438c-6.609-.442-10.385-1.325-11.211-3.423-1.18-2.871.708-19.876,3.54-20.98,6.491-2.65,60.658,10.159,71.752,10.269,14.043.11,39.062-2.65,42.957-1.546C197.376,148.524,203.512,165.861,200.562,168.842Z" transform="translate(-72.397 -137.673)"/></g><g transform="translate(4.793 165.516)"><path class="n" d="M142.536,159.728,6.821,149.9a2.39,2.39,0,1,0-.472,4.748L155.517,165.47C167.082,166.354,145.014,159.839,142.536,159.728Z" transform="translate(-4.061 -149.893)"/></g><g transform="translate(169.23 136.262)"><path class="f" d="M149.3,234.375l-5.9-4.859,92.286.331c9.795.552,19.59-6.846,25.019-14.465l16.876-23.741c12.037-16.895-8.379-50.9-25.491-66.475l3.422-1.767c18.174,16.453,40.478,51.788,27.733,69.787l-18.528,26.06c-5.783,8.061-16.168,16.011-26.553,15.349Z" transform="translate(-143.4 -123.4)"/></g><g transform="translate(61.721 182.208)"><path class="c" d="M149.9,217.008c9.559-1.656,17.466-4.2,25.727-19.214,5.665-10.269,11.447-24.514-5.547-28.158-17.466-3.644-57.236-8.061-80.13-.442-23.248,7.73-33.87,28.379-37.646,48.034Z" transform="translate(-52.3 -165.009)"/></g><g transform="translate(63.727 185.115)"><path class="c" d="M169.062,196.968c5.075-9.165,10.267-21.974-4.956-25.176-15.7-3.313-51.217-7.178-71.752-.442C75.36,176.982,59.429,194.318,54,216.955l85.559-.221C152.54,212.759,163.516,207.017,169.062,196.968Z" transform="translate(-54 -167.641)"/></g><g transform="translate(76.232 225.595)"><rect class="i" width="73.168" height="2.111" transform="translate(0 0.208) rotate(-0.163)"/></g><g transform="translate(37.646 234.538)"><path class="n" d="M49.13,212.4,31.9,246.521l1.77,1.1s5.665-1.767,5.547-3.423c-.118-1.767,18.646-31.8,18.646-31.8Z" transform="translate(-31.9 -212.4)"/></g><g transform="translate(286.755 101.81)"><path class="q" d="M246.779,92.2c7.081,7.95,7.671,16.563,1.062,26.17a1.624,1.624,0,0,0,.472.331l-.472-.331C239.58,110.972,243.71,94.74,246.779,92.2Z" transform="translate(-242.987 -92.2)"/></g><g transform="translate(290.11 104.018)"><path class="r" d="M248.037,94.2c4.839,6.625,5.311,13.913.826,21.643C244.142,109.328,245.795,99.059,248.037,94.2Z" transform="translate(-245.83 -94.2)"/></g><g transform="translate(245.038 77.406)"><path class="q" d="M208.419,70.1a23.989,23.989,0,0,0-.708,8.061,23.758,23.758,0,0,0,1.77,7.95,23.987,23.987,0,0,0,.708-8.061A20.687,20.687,0,0,0,208.419,70.1Z" transform="translate(-207.637 -70.1)"/></g><g transform="translate(84.176 236.856)"><path class="f" d="M140.568,234.155c4.957-3.644,7.2-9.717,3.894-14.8s-9.913-5.963-15.814-3.644L84.276,233.272h0a25.254,25.254,0,0,0-4.012,1.656C71.531,239.9,68.7,250.5,74.009,258.669s16.64,10.821,25.373,5.852a20.023,20.023,0,0,0,3.54-2.54h0Z" transform="translate(-71.328 -214.499)"/></g><g transform="translate(140.679 240.435)"><path class="c" d="M122.5,218.69a6.32,6.32,0,0,0-2.36,8.834,7.292,7.292,0,0,0,9.441,2.208,6.32,6.32,0,0,0,2.36-8.834A7.093,7.093,0,0,0,122.5,218.69Z" transform="translate(-119.207 -217.74)"/></g><g transform="translate(91.691 261.844)"><path class="c" d="M83.011,238.643a10.114,10.114,0,0,0-3.776,14.245,11.665,11.665,0,0,0,15.224,3.534,10.114,10.114,0,0,0,3.776-14.245A11.5,11.5,0,0,0,83.011,238.643Z" transform="translate(-77.696 -237.128)"/></g><g transform="translate(76.232 220.958)"><rect class="i" width="73.168" height="2.111" transform="translate(0 0.208) rotate(-0.163)"/></g><g transform="translate(76.232 216.209)"><rect class="i" width="73.168" height="2.111" transform="translate(0 0.208) rotate(-0.163)"/></g><g transform="translate(7.467 101.122)"><path class="i" d="M0,0,64.181.335l.363,74.32L.363,74.32Z" transform="matrix(0.076, -0.997, 0.997, 0.076, 0, 64.357)"/></g><g transform="translate(39.298 103.908)"><path class="c" d="M43.921,158.7,33.3,158.035,38.493,94.1l10.621.663Z" transform="translate(-33.3 -94.1)"/></g><g transform="translate(245.186 78.732)"><path class="r" d="M208.161,71.3a29.907,29.907,0,0,0-.354,6.736,25.087,25.087,0,0,0,1.18,6.515,29.907,29.907,0,0,0,.354-6.736A26,26,0,0,0,208.161,71.3Z" transform="translate(-207.763 -71.3)"/></g><g transform="translate(245.417 217.929)"><path class="d" d="M210.014,200.827a.421.421,0,0,1-.236-.11l-1.77-2.871c-.118-.11,0-.331.118-.442s.354,0,.472.11l1.77,2.871c.118.11,0,.331-.118.442Z" transform="translate(-207.959 -197.359)"/></g><g transform="translate(244.001 217.929)"><path class="d" d="M207.043,200.054h-.118c-.118-.11-.236-.331-.118-.442l1.3-2.1c.118-.11.354-.221.472-.11s.236.331.118.442l-1.3,2.1A.453.453,0,0,1,207.043,200.054Z" transform="translate(-206.759 -197.359)"/></g><g transform="translate(247.187 218.702)"><path class="d" d="M209.743,200.754h-.118c-.118-.11-.236-.331-.118-.442l1.3-2.1c.118-.11.354-.221.472-.11s.236.331.118.442l-1.3,2.1A.537.537,0,0,0,209.743,200.754Z" transform="translate(-209.459 -198.059)"/></g><g transform="translate(157.62 39.931)"><path class="s" d="M161.458,62.816a.748.748,0,0,1-.472-.11c-11.329-4.086-20.77-12.7-27.261-24.624a1.248,1.248,0,0,1,.59-1.767,1.422,1.422,0,0,1,1.888.552c4.248,7.95,12.155,18.441,25.727,23.41a1.367,1.367,0,0,1,.826,1.767A1.334,1.334,0,0,1,161.458,62.816Z" transform="translate(-133.562 -36.162)"/></g><g transform="translate(153.298 35.114)"><path class="f" d="M136.391,43.947a6.348,6.348,0,0,0,6.491-6.073,6.505,6.505,0,0,0-12.981,0A6.275,6.275,0,0,0,136.391,43.947Z" transform="translate(-129.9 -31.8)"/></g><g transform="translate(56.243 156.186)"><g transform="translate(1.411 0.008)"><path class="t" d="M0,0,10.053.053,10.061,1.7.008,1.652Z" transform="translate(0 10.031) rotate(-85.586)"/></g><g transform="translate(3.577 0.166)"><path class="t" d="M0,0,10.053.053l.012,2.477L.012,2.477Z" transform="matrix(0.077, -0.997, 0.997, 0.077, 0, 10.035)"/></g><g transform="translate(6.683 0.398)"><path class="t" d="M0,0,10.053.053,10.061,1.7.008,1.652Z" transform="matrix(0.077, -0.997, 0.997, 0.077, 0, 10.031)"/></g><g transform="translate(8.817 0.613)"><path class="t" d="M0,0,10.053.053,10.061,1.7.008,1.652Z" transform="translate(0 10.031) rotate(-85.586)"/></g><g transform="translate(11.056 0.799)"><path class="t" d="M0,0,10.053.053l0,.826L0,.826Z" transform="translate(0 10.026) rotate(-85.591)"/></g><g transform="translate(0 0)"><path class="t" d="M0,0,10.053.053l0,.826L0,.826Z" transform="translate(0 10.027) rotate(-85.617)"/></g><g transform="translate(12.385 0.849)"><path class="t" d="M0,0,10.053.053l.012,2.477L.012,2.477Z" transform="translate(0 10.035) rotate(-85.597)"/></g><g transform="translate(15.377 1.074)"><path class="t" d="M0,0,10.053.053,10.061,1.7.008,1.652Z" transform="translate(0 10.031) rotate(-85.586)"/></g></g></svg>