<svg xmlns="http://www.w3.org/2000/svg" viewBox="0 0 123.75 108.75"><defs><style>.a{fill:#fff;}</style></defs><path class="a" d="M60.234,6.328A9.919,9.919,0,0,0,67.5,9.375a9.919,9.919,0,0,0,7.266-3.047l38.672-37.969a53.716,53.716,0,0,0,11.25-14.766,37.533,37.533,0,0,0,4.688-17.578q0-16.406-9.727-25.9t-25.9-9.492q-12.656,0-26.25,11.719Q53.906-99.375,41.25-99.375q-16.641,0-26.133,9.609T5.625-63.984q0,10.781,7.5,22.031A58.955,58.955,0,0,0,21.8-31.406Zm-30.7-45.937a47.019,47.019,0,0,1-8.672-11.25q-3.984-7.031-3.984-13.125,0-11.719,6.328-17.93T41.25-88.125q6.8,0,14.766,5.859a78.4,78.4,0,0,1,10.547,9.141l.938.938.938-.937A140.069,140.069,0,0,1,78.984-82.5q7.969-5.625,14.766-5.625,11.719,0,18.047,6.211t6.328,17.93a27.207,27.207,0,0,1-3.984,13.359,51.745,51.745,0,0,1-8.672,11.25L67.5-2.344Z" transform="translate(-5.625 99.375)"/></svg>