<svg xmlns="http://www.w3.org/2000/svg" viewBox="0 0 116.25 116.25"><defs><style>.a{fill:#fff;}</style></defs><path class="a" d="M60-103.125a56.344,56.344,0,0,1,29.063,7.852,58.733,58.733,0,0,1,21.211,21.211A56.344,56.344,0,0,1,118.125-45a56.344,56.344,0,0,1-7.852,29.063A58.733,58.733,0,0,1,89.063,5.273,56.344,56.344,0,0,1,60,13.125,56.344,56.344,0,0,1,30.938,5.273,58.733,58.733,0,0,1,9.727-15.937,56.344,56.344,0,0,1,1.875-45,56.344,56.344,0,0,1,9.727-74.062,58.733,58.733,0,0,1,30.938-95.273,56.344,56.344,0,0,1,60-103.125Zm0,105A45.486,45.486,0,0,0,83.438-4.453a47.269,47.269,0,0,0,17.109-17.109A45.486,45.486,0,0,0,106.875-45a45.486,45.486,0,0,0-6.328-23.437A47.269,47.269,0,0,0,83.438-85.547,45.486,45.486,0,0,0,60-91.875a45.486,45.486,0,0,0-23.437,6.328A47.27,47.27,0,0,0,19.453-68.437,45.486,45.486,0,0,0,13.125-45a45.486,45.486,0,0,0,6.328,23.438A47.27,47.27,0,0,0,36.563-4.453,45.486,45.486,0,0,0,60,1.875ZM74.531-22.5a2.537,2.537,0,0,0,2.109.469A3,3,0,0,0,78.516-23.2L82.734-29.3a2.916,2.916,0,0,0,.586-2.109,2.567,2.567,0,0,0-1.055-1.875l-15.7-11.25V-77.812a2.712,2.712,0,0,0-.82-1.992,2.712,2.712,0,0,0-1.992-.82h-7.5a2.712,2.712,0,0,0-1.992.82,2.712,2.712,0,0,0-.82,1.992v38.438a2.886,2.886,0,0,0,1.172,2.344Z" transform="translate(-1.875 103.125)"/></svg>