<svg xmlns="http://www.w3.org/2000/svg" viewBox="0 0 116.25 116.25"><defs><style>.a{fill:#fff;}</style></defs><path class="a" d="M60-103.125a56.344,56.344,0,0,1,29.063,7.852,58.733,58.733,0,0,1,21.211,21.211A56.344,56.344,0,0,1,118.125-45a56.344,56.344,0,0,1-7.852,29.063A58.733,58.733,0,0,1,89.063,5.273,56.344,56.344,0,0,1,60,13.125,56.344,56.344,0,0,1,30.938,5.273,58.733,58.733,0,0,1,9.727-15.937,56.344,56.344,0,0,1,1.875-45,56.344,56.344,0,0,1,9.727-74.062,58.733,58.733,0,0,1,30.938-95.273,56.344,56.344,0,0,1,60-103.125Zm0,105A45.486,45.486,0,0,0,83.438-4.453a47.269,47.269,0,0,0,17.109-17.109A45.486,45.486,0,0,0,106.875-45a45.486,45.486,0,0,0-6.328-23.437A47.269,47.269,0,0,0,83.438-85.547,45.486,45.486,0,0,0,60-91.875a45.486,45.486,0,0,0-23.437,6.328A47.27,47.27,0,0,0,19.453-68.437,45.486,45.486,0,0,0,13.125-45a45.486,45.486,0,0,0,6.328,23.438A47.27,47.27,0,0,0,36.563-4.453,45.486,45.486,0,0,0,60,1.875ZM81.328-71.25a4.982,4.982,0,0,0-.82-4.57,5.891,5.891,0,0,0-3.984-2.344,5.49,5.49,0,0,0-4.57,1.523L48.047-53.672a4.926,4.926,0,0,0-1.641,2.578L38.672-18.75a4.982,4.982,0,0,0,.82,4.57,5.891,5.891,0,0,0,3.984,2.344,5.49,5.49,0,0,0,4.57-1.523L71.953-36.328a4.926,4.926,0,0,0,1.641-2.578ZM60-52.5a7.208,7.208,0,0,1,5.273,2.227A7.208,7.208,0,0,1,67.5-45a7.208,7.208,0,0,1-2.227,5.273A7.208,7.208,0,0,1,60-37.5a7.208,7.208,0,0,1-5.273-2.227A7.208,7.208,0,0,1,52.5-45a7.208,7.208,0,0,1,2.227-5.273A7.208,7.208,0,0,1,60-52.5Z" transform="translate(-1.875 103.125)"/></svg>