<svg xmlns="http://www.w3.org/2000/svg" viewBox="0 0 460 331.401"><defs><style>.a{fill:#fff;}.b{opacity:0.05;}.c{fill:#5f278e;}.d{fill:#a5cd47;}.e{fill:#fde5d7;}.f{opacity:0.04;}</style></defs><g transform="translate(-70.137 -33.389)"><g transform="translate(70.137 33.389)"><rect class="a" width="429.979" height="296.48" transform="translate(14.079 34.921)"/><path class="b" d="M434.333,51.5H19.7V93.6h.67c8.492,0,15.346-3.764,15.346-8.364,0,4.6,6.853,8.364,15.346,8.364s15.346-3.764,15.346-8.364c0,4.6,6.853,8.364,15.346,8.364S97.1,89.837,97.1,85.236c0,4.6,6.853,8.364,15.346,8.364s15.346-3.764,15.346-8.364c0,4.6,6.853,8.364,15.346,8.364s15.346-3.764,15.346-8.364c0,4.6,6.853,8.364,15.346,8.364s15.346-3.764,15.346-8.364c0,4.6,6.853,8.364,15.346,8.364s15.346-3.764,15.346-8.364c0,4.6,6.853,8.364,15.346,8.364s15.346-3.764,15.346-8.364c0,4.6,6.853,8.364,15.346,8.364s15.346-3.764,15.346-8.364c0,4.6,6.853,8.364,15.346,8.364s15.346-3.764,15.346-8.364c0,4.6,6.853,8.364,15.346,8.364s15.346-3.764,15.346-8.364c0,4.6,6.853,8.364,15.346,8.364s15.346-3.764,15.346-8.364c0,4.6,6.853,8.364,15.346,8.364s15.346-3.764,15.346-8.364c0,4.6,6.853,8.364,15.346,8.364s15.346-3.764,15.346-8.364c0,4.6,6.853,8.364,15.346,8.364V51.5Z" transform="translate(-5.025 -15.603)"/><path class="c" d="M0,0V57.923c0,7.946,6.853,14.359,15.346,14.359s15.346-6.413,15.346-14.359V0Z"/><path class="d" d="M41.2,0V57.923c0,7.946,6.853,14.359,15.346,14.359s15.346-6.413,15.346-14.359V0Z" transform="translate(-10.509)"/><path class="c" d="M82.3,0V57.923c0,7.946,6.853,14.359,15.346,14.359s15.346-6.413,15.346-14.359V0Z" transform="translate(-20.991)"/><path class="d" d="M123.5,0V57.923c0,7.946,6.853,14.359,15.346,14.359s15.346-6.413,15.346-14.359V0Z" transform="translate(-31.5)"/><path class="c" d="M164.7,0V57.923c0,7.946,6.853,14.359,15.346,14.359s15.346-6.413,15.346-14.359V0Z" transform="translate(-42.008)"/><path class="d" d="M205.8,0V57.923c0,7.946,6.853,14.359,15.346,14.359s15.346-6.413,15.346-14.359V0Z" transform="translate(-52.492)"/><path class="c" d="M247,0V57.923c0,7.946,6.853,14.359,15.346,14.359s15.346-6.413,15.346-14.359V0Z" transform="translate(-63)"/><path class="d" d="M288.2,0V57.923c0,7.946,6.853,14.359,15.346,14.359s15.346-6.413,15.346-14.359V0Z" transform="translate(-73.509)"/><path class="c" d="M329.3,0V57.923c0,7.946,6.853,14.359,15.346,14.359s15.346-6.413,15.346-14.359V0Z" transform="translate(-83.991)"/><path class="d" d="M370.5,0V57.923c0,7.946,6.853,14.359,15.346,14.359s15.346-6.413,15.346-14.359V0Z" transform="translate(-94.5)"/><path class="c" d="M411.6,0V57.923c0,7.946,6.853,14.359,15.346,14.359s15.346-6.413,15.346-14.359V0Z" transform="translate(-104.983)"/><path class="d" d="M452.8,0V57.923c0,7.946,6.853,14.359,15.346,14.359s15.346-6.413,15.346-14.359V0Z" transform="translate(-115.492)"/><path class="c" d="M494,0V57.923c0,7.946,6.854,14.359,15.346,14.359s15.346-6.413,15.346-14.359V0Z" transform="translate(-126)"/><path class="d" d="M535.1,0V57.923c0,7.946,6.853,14.359,15.346,14.359s15.346-6.413,15.346-14.359V0Z" transform="translate(-136.483)"/><path class="c" d="M576.3,0V57.923c0,7.946,6.853,14.359,15.346,14.359s15.346-6.413,15.346-14.359V0Z" transform="translate(-146.992)"/><g transform="translate(30.691 171.392)"><rect class="a" width="76.654" height="140.661"/><rect class="c" width="69.726" height="65.242" transform="translate(3.799 3.415)"/><rect class="c" width="69.726" height="65.242" transform="translate(3.799 72.422)"/><path class="e" d="M93.982,166.152a1.344,1.344,0,1,1-1.341-1.255A1.252,1.252,0,0,1,93.982,166.152Z" transform="translate(-53.979 -129.349)"/><path class="f" d="M41.2,170.081V113.9h76.654Z" transform="translate(-41.2 -113.9)"/></g><g transform="translate(114.348 102.601)"><rect class="d" width="311.012" height="139.121"/><rect class="d" width="301.253" height="127.412" transform="translate(3.65 5.855)"/></g></g></g></svg>